<svg width="24" height="24" viewBox="0 0 24 24" fill="none" xmlns="http://www.w3.org/2000/svg">
<path d="M20 9.80696V5.99996C20 5.73474 19.8946 5.48039 19.7071 5.29285C19.5196 5.10532 19.2652 4.99996 19 4.99996C17 4.99996 14.51 3.80996 12.76 2.27996C12.5481 2.09896 12.2786 1.99951 12 1.99951C11.7214 1.99951 11.4519 2.09896 11.24 2.27996C9.5 3.79996 7 4.99996 5 4.99996C4.73478 4.99996 4.48043 5.10532 4.29289 5.29285C4.10536 5.48039 4 5.73474 4 5.99996V13C4 16.88 6.107 19.254 9 20.796" stroke="#6E5DFF" stroke-width="2" stroke-linecap="round" stroke-linejoin="round"/>
<path d="M19 17V15C19 14.4696 18.7893 13.9609 18.4142 13.5858C18.0391 13.2107 17.5304 13 17 13C16.4696 13 15.9609 13.2107 15.5858 13.5858C15.2107 13.9609 15 14.4696 15 15V17" stroke="#0F0D28" stroke-width="2" stroke-linecap="round" stroke-linejoin="round"/>
<path d="M20 17H14C13.4477 17 13 17.4477 13 18V21C13 21.5523 13.4477 22 14 22H20C20.5523 22 21 21.5523 21 21V18C21 17.4477 20.5523 17 20 17Z" stroke="#0F0D28" stroke-width="2" stroke-linecap="round" stroke-linejoin="round"/>
</svg>
